<?xml version="1.0" encoding="utf-8"?>
<!-- Generator: Adobe Illustrator 16.0.0, SVG Export Plug-In . SVG Version: 6.00 Build 0)  -->
<!DOCTYPE svg PUBLIC "-//W3C//DTD SVG 1.1//EN" "http://www.w3.org/Graphics/SVG/1.1/DTD/svg11.dtd">
<svg version="1.1" id="Layer_1" xmlns="http://www.w3.org/2000/svg" xmlns:xlink="http://www.w3.org/1999/xlink" x="0px" y="0px"
	 width="24px" height="24px" viewBox="0 0 24 24" enable-background="new 0 0 24 24" xml:space="preserve">
<path fill="#FFFFFF" d="M12,15.516c1.922,0,3.516-1.594,3.516-3.516S13.922,8.484,12,8.484S8.484,10.078,8.484,12
	S10.078,15.516,12,15.516z M19.453,12.984l2.109,1.641c0.188,0.141,0.233,0.422,0.094,0.656l-2.016,3.469
	c-0.142,0.234-0.375,0.281-0.609,0.188l-2.484-0.983c-0.516,0.375-1.078,0.75-1.688,0.983l-0.375,2.625
	c-0.047,0.234-0.234,0.422-0.469,0.422H9.984c-0.234,0-0.422-0.188-0.469-0.422L9.14,18.938c-0.609-0.233-1.172-0.562-1.688-0.983
	l-2.484,0.983c-0.234,0.095-0.469,0.047-0.609-0.188l-2.016-3.469c-0.141-0.234-0.094-0.516,0.094-0.656l2.109-1.641
	C4.499,12.656,4.499,12.328,4.499,12s0-0.656,0.047-0.984L2.437,9.375C2.249,9.234,2.203,8.953,2.343,8.719L4.359,5.25
	C4.5,5.016,4.734,4.969,4.968,5.062l2.484,0.984C7.968,5.671,8.53,5.296,9.14,5.062l0.375-2.625
	c0.047-0.234,0.234-0.422,0.469-0.422h4.032c0.233,0,0.422,0.188,0.469,0.422l0.375,2.625c0.608,0.234,1.172,0.563,1.688,0.984
	l2.484-0.984c0.234-0.094,0.469-0.047,0.609,0.188l2.016,3.469c0.141,0.234,0.094,0.516-0.094,0.656l-2.109,1.641
	C19.5,11.344,19.5,11.672,19.5,12S19.5,12.656,19.453,12.984z"/>
</svg>
